<svg width="438" height="446" viewBox="0 0 438 446" fill="none" xmlns="http://www.w3.org/2000/svg">
<g filter="url(#filter0_d)">
<g filter="url(#filter1_d)">
<path d="M343.433 173.298C346.503 173.298 349 170.799 349 167.727V161.57C349 158.499 346.503 156 343.433 156H182.567C179.497 156 177 158.499 177 161.57V167.727C177 170.799 179.497 173.298 182.567 173.298H182.95V189.027C182.95 190.515 184.156 191.722 185.644 191.722C187.132 191.722 188.338 190.515 188.338 189.027V173.298H337.661V281.027H188.338V199.808C188.338 198.319 187.132 197.112 185.644 197.112C184.156 197.112 182.951 198.319 182.951 199.808V281.027H182.568C179.498 281.027 177 283.525 177 286.597V292.754C177 295.826 179.498 298.324 182.568 298.324H199.942L190.09 332.767C189.596 334.494 189.933 336.308 191.014 337.742C192.095 339.177 193.745 340 195.541 340H207.203C209.72 340 211.961 338.309 212.653 335.888L214.883 328.093H251.381V334.328C251.381 337.456 253.924 340 257.049 340H268.95C272.076 340 274.619 337.456 274.619 334.328V328.093H311.117L313.346 335.888C314.038 338.309 316.28 340 318.797 340H330.459C332.255 340 333.904 339.177 334.985 337.742C336.066 336.308 336.403 334.494 335.909 332.767L326.057 298.324H343.432C346.502 298.324 348.999 295.826 348.999 292.754V286.597C348.999 283.525 346.502 281.027 343.432 281.027H343.049V173.298H343.433ZM207.203 334.609H195.541C195.506 334.609 195.401 334.609 195.316 334.497C195.232 334.385 195.261 334.284 195.271 334.25L205.527 298.394H217.775L207.474 334.406C207.439 334.526 207.328 334.609 207.203 334.609ZM269.232 334.328C269.232 334.483 269.105 334.609 268.951 334.609H257.05C256.895 334.609 256.769 334.483 256.769 334.328V328.093H269.232V334.328ZM216.425 322.702L218.289 316.186H307.711L309.575 322.702H216.425ZM269.232 298.394V310.795H256.768V298.394H269.232ZM330.684 334.497C330.599 334.609 330.494 334.609 330.459 334.609H318.797C318.672 334.609 318.561 334.526 318.527 334.405L308.226 298.394H320.474L330.73 334.25C330.739 334.284 330.768 334.385 330.684 334.497ZM306.169 310.795H274.619V298.324H302.602L306.169 310.795ZM343.612 286.597V292.754C343.612 292.853 343.531 292.934 343.433 292.934H239.402C237.914 292.934 236.708 294.141 236.708 295.629C236.708 297.118 237.914 298.324 239.402 298.324H251.381V310.795H219.831L223.398 298.324H228.626C230.115 298.324 231.32 297.118 231.32 295.629C231.32 294.141 230.115 292.934 228.626 292.934H182.567C182.469 292.934 182.388 292.853 182.388 292.754V286.597C182.388 286.498 182.469 286.417 182.567 286.417H343.432C343.531 286.417 343.612 286.498 343.612 286.597ZM182.567 167.907C182.469 167.907 182.388 167.827 182.388 167.727V161.57C182.388 161.471 182.469 161.391 182.567 161.391H343.432C343.531 161.391 343.612 161.471 343.612 161.57V167.727C343.612 167.827 343.531 167.907 343.432 167.907H182.567Z" fill="#494949"/>
<path d="M213 266C213 270.963 216.813 275 221.5 275C226.187 275 230 270.963 230 266C230 261.038 226.187 257 221.5 257C216.813 257 213 261.038 213 266ZM221.5 262.609C223.265 262.609 224.702 264.13 224.702 266C224.702 267.87 223.265 269.391 221.5 269.391C219.734 269.391 218.298 267.87 218.298 266C218.298 264.131 219.734 262.609 221.5 262.609Z" fill="#494949"/>
<path d="M304.5 197C309.187 197 313 193.187 313 188.5C313 183.813 309.187 180 304.5 180C299.813 180 296 183.813 296 188.5C296 193.187 299.813 197 304.5 197ZM304.5 185.298C306.266 185.298 307.702 186.734 307.702 188.5C307.702 190.266 306.266 191.702 304.5 191.702C302.735 191.702 301.298 190.266 301.298 188.5C301.298 186.734 302.735 185.298 304.5 185.298Z" fill="#494949"/>
<path d="M219 248.149C219 249.723 220.119 251 221.5 251C222.881 251 224 249.723 224 248.149V241.851C224 240.277 222.881 239 221.5 239C220.119 239 219 240.277 219 241.851V248.149Z" fill="#494949"/>
<path d="M221.5 233C222.881 233 224 231.83 224 230.386V224.614C224 223.17 222.881 222 221.5 222C220.119 222 219 223.17 219 224.614V230.386C219 231.83 220.119 233 221.5 233Z" fill="#494949"/>
<path d="M213.776 214.224C214.293 214.741 214.971 215 215.649 215C216.327 215 217.005 214.741 217.522 214.224L221.5 210.246L225.478 214.224C225.995 214.741 226.673 215 227.351 215C228.029 215 228.707 214.741 229.224 214.224C230.259 213.19 230.259 211.512 229.224 210.478L225.246 206.5L229.224 202.522C230.259 201.487 230.259 199.81 229.224 198.776C228.189 197.742 226.513 197.742 225.478 198.776L221.5 202.754L217.523 198.776C216.488 197.742 214.811 197.741 213.776 198.776C212.742 199.811 212.742 201.488 213.776 202.522L217.754 206.5L213.776 210.478C212.741 211.513 212.741 213.19 213.776 214.224Z" fill="#494949"/>
<path d="M265.178 236.822C264.082 235.726 262.307 235.726 261.211 236.822L257 241.034L252.788 236.822C251.693 235.726 249.917 235.726 248.821 236.822C247.726 237.917 247.726 239.693 248.821 240.788L253.033 245L248.821 249.212C247.726 250.307 247.726 252.083 248.821 253.178C249.369 253.726 250.087 254 250.805 254C251.522 254 252.24 253.726 252.788 253.178L257 248.966L261.212 253.178C261.76 253.726 262.477 254 263.195 254C263.913 254 264.631 253.726 265.179 253.178C266.274 252.083 266.274 250.307 265.179 249.212L260.967 245L265.179 240.788C266.273 239.693 266.273 237.917 265.178 236.822Z" fill="#494949"/>
<path d="M312.223 236.822C311.189 235.726 309.512 235.726 308.477 236.822L304.5 241.034L300.522 236.822C299.487 235.726 297.811 235.726 296.776 236.822C295.741 237.917 295.741 239.693 296.776 240.788L300.754 245L296.776 249.212C295.741 250.307 295.741 252.083 296.776 253.178C297.293 253.726 297.971 254 298.649 254C299.327 254 300.005 253.726 300.522 253.178L304.5 248.966L308.478 253.178C308.995 253.726 309.673 254 310.351 254C311.029 254 311.707 253.726 312.224 253.178C313.259 252.083 313.259 250.307 312.224 249.212L308.246 245L312.224 240.788C313.258 239.693 313.258 237.917 312.223 236.822Z" fill="#494949"/>
<path d="M233.67 221.7C232.195 221.7 231 222.887 231 224.35C231 225.814 232.195 227 233.67 227H304.433C305.908 227 307.103 225.814 307.103 224.35V213.047L308.442 214.377C308.964 214.894 309.647 215.153 310.33 215.153C311.013 215.153 311.697 214.895 312.218 214.377C313.261 213.342 313.261 211.664 312.218 210.629L306.321 204.776C305.278 203.741 303.588 203.741 302.546 204.776L296.648 210.629C295.606 211.664 295.606 213.342 296.648 214.377C297.691 215.411 299.381 215.411 300.424 214.377L301.763 213.047V221.7H233.67V221.7Z" fill="#494949"/>
</g>
<g filter="url(#filter2_d)">
<circle cx="405.5" cy="250.5" r="13" stroke="#494949" stroke-width="7"/>
<path d="M403 94.5C403 97.5376 400.538 100 397.5 100C394.462 100 392 97.5376 392 94.5C392 91.4624 394.462 89 397.5 89C400.538 89 403 91.4624 403 94.5Z" stroke="#494949" stroke-width="6"/>
<path d="M412 25.5C412 28.5376 409.538 31 406.5 31C403.462 31 401 28.5376 401 25.5C401 22.4624 403.462 20 406.5 20C409.538 20 412 22.4624 412 25.5Z" stroke="#494949" stroke-width="6"/>
<path d="M184 14.5C184 17.5376 181.538 20 178.5 20C175.462 20 173 17.5376 173 14.5C173 11.4624 175.462 9 178.5 9C181.538 9 184 11.4624 184 14.5Z" stroke="#494949" stroke-width="6"/>
<path d="M332 431.5C332 434.538 329.538 437 326.5 437C323.462 437 321 434.538 321 431.5C321 428.462 323.462 426 326.5 426C329.538 426 332 428.462 332 431.5Z" stroke="#494949" stroke-width="6"/>
<path d="M429 363.5C429 366.538 426.538 369 423.5 369C420.462 369 418 366.538 418 363.5C418 360.462 420.462 358 423.5 358C426.538 358 429 360.462 429 363.5Z" stroke="#494949" stroke-width="6"/>
<path d="M76 363.5C76 366.538 73.5376 369 70.5 369C67.4624 369 65 366.538 65 363.5C65 360.462 67.4624 358 70.5 358C73.5376 358 76 360.462 76 363.5Z" stroke="#494949" stroke-width="6"/>
<path d="M20 275.5C20 278.538 17.5376 281 14.5 281C11.4624 281 9 278.538 9 275.5C9 272.462 11.4624 270 14.5 270C17.5376 270 20 272.462 20 275.5Z" stroke="#494949" stroke-width="6"/>
<circle cx="247.5" cy="74.5" r="13" stroke="#494949" stroke-width="7"/>
<circle cx="137.5" cy="85.5" r="7" stroke="#494949" stroke-width="7"/>
<circle cx="111.5" cy="260.5" r="7" stroke="#494949" stroke-width="7"/>
<circle cx="42.5" cy="161.5" r="7" stroke="#494949" stroke-width="7"/>
<circle cx="324.5" cy="25.5" r="7" stroke="#494949" stroke-width="7"/>
</g>
</g>
<defs>
<filter id="filter0_d" x="1" y="1" width="436" height="444" filterUnits="userSpaceOnUse" color-interpolation-filters="sRGB">
<feFlood flood-opacity="0" result="BackgroundImageFix"/>
<feColorMatrix in="SourceAlpha" type="matrix" values="0 0 0 0 0 0 0 0 0 0 0 0 0 0 0 0 0 0 127 0"/>
<feOffset/>
<feGaussianBlur stdDeviation="2.5"/>
<feColorMatrix type="matrix" values="0 0 0 0 0.270588 0 0 0 0 0.709804 0 0 0 0 0.972549 0 0 0 1 0"/>
<feBlend mode="normal" in2="BackgroundImageFix" result="effect1_dropShadow"/>
<feBlend mode="normal" in="SourceGraphic" in2="effect1_dropShadow" result="shape"/>
</filter>
<filter id="filter1_d" x="171" y="150" width="184" height="196" filterUnits="userSpaceOnUse" color-interpolation-filters="sRGB">
<feFlood flood-opacity="0" result="BackgroundImageFix"/>
<feColorMatrix in="SourceAlpha" type="matrix" values="0 0 0 0 0 0 0 0 0 0 0 0 0 0 0 0 0 0 127 0"/>
<feOffset/>
<feGaussianBlur stdDeviation="3"/>
<feColorMatrix type="matrix" values="0 0 0 0 0.270588 0 0 0 0 0.709804 0 0 0 0 0.972549 0 0 0 1 0"/>
<feBlend mode="normal" in2="BackgroundImageFix" result="effect1_dropShadow"/>
<feBlend mode="normal" in="SourceGraphic" in2="effect1_dropShadow" result="shape"/>
</filter>
<filter id="filter2_d" x="0" y="0" width="438" height="446" filterUnits="userSpaceOnUse" color-interpolation-filters="sRGB">
<feFlood flood-opacity="0" result="BackgroundImageFix"/>
<feColorMatrix in="SourceAlpha" type="matrix" values="0 0 0 0 0 0 0 0 0 0 0 0 0 0 0 0 0 0 127 0"/>
<feOffset/>
<feGaussianBlur stdDeviation="3"/>
<feColorMatrix type="matrix" values="0 0 0 0 0.270588 0 0 0 0 0.709804 0 0 0 0 0.972549 0 0 0 1 0"/>
<feBlend mode="normal" in2="BackgroundImageFix" result="effect1_dropShadow"/>
<feBlend mode="normal" in="SourceGraphic" in2="effect1_dropShadow" result="shape"/>
</filter>
</defs>
</svg>
